<svg width="246" height="142" viewBox="0 0 246 142" fill="none" xmlns="http://www.w3.org/2000/svg">
<path d="M32.5307 82.5079C32.5952 71.2224 39.173 64.5156 49.1688 64.5156C59.1645 64.5156 65.0975 71.0935 65.033 82.0565V139H96.5679V75.8656C96.6324 53.5525 83.0253 38.6557 62.1955 38.6557C47.5565 38.6557 36.4645 46.0719 32.0793 58.1312H30.983V39.9454H0.99574V139H32.5307V82.5079ZM172.39 39.9454H153.495V34.3994C153.495 28.7244 155.817 25.242 163.169 25.242C166.135 25.242 169.746 25.8869 172.068 26.5963L177.098 3.50937C173.358 2.47755 164.781 0.73635 156.075 0.73635C135.89 0.73635 122.025 11.9574 122.025 34.9153V39.9454H108.676V63.1614H122.025V139H153.495V63.1614H172.39V39.9454ZM243.473 39.9454H225.61V16.2136H194.075V39.9454H180.984V63.1614H194.075V111.334C193.881 131.39 206.908 141.451 229.157 140.419C236.766 140.032 242.248 138.484 245.279 137.581L240.507 114.817C239.152 115.139 235.992 115.784 233.606 115.784C228.512 115.784 225.61 113.72 225.61 107.852V63.1614H243.473V39.9454Z" fill="#0891B2"/>
</svg>
